<svg xmlns="http://www.w3.org/2000/svg" viewBox="0 0 640 480" width="640" height="480">
  <defs>
    <linearGradient id="quizBg" x1="0" y1="0" x2="1" y2="1">
      <stop offset="0%" stop-color="#eef0ff"/>
      <stop offset="100%" stop-color="#dbe0ff"/>
    </linearGradient>
    <linearGradient id="quizCard" x1="0" y1="0" x2="0" y2="1">
      <stop offset="0%" stop-color="#7d8cff"/>
      <stop offset="100%" stop-color="#5142f7"/>
    </linearGradient>
  </defs>
  <rect width="640" height="480" rx="32" fill="url(#quizBg)"/>

  <g transform="translate(120,90)">
    <rect x="0" y="0" width="260" height="300" rx="26" fill="#ffffff" stroke="#dbe4ff" stroke-width="3"/>
    <rect x="28" y="40" width="204" height="20" rx="10" fill="#c9d1ff"/>
    <rect x="28" y="80" width="150" height="16" rx="8" fill="#e4e8ff"/>

    <rect x="28" y="130" width="204" height="44" rx="14" fill="url(#quizCard)"/>
    <rect x="28" y="184" width="204" height="44" rx="14" fill="#f4f6ff" stroke="#dbe4ff" stroke-width="2"/>
    <rect x="28" y="238" width="204" height="44" rx="14" fill="#f4f6ff" stroke="#dbe4ff" stroke-width="2"/>
  </g>

  <g transform="translate(400,150)">
    <circle cx="70" cy="70" r="70" fill="#ddef46"/>
    <text x="70" y="95" font-family="Inter, sans-serif" font-weight="700" font-size="72" fill="#24314d" text-anchor="middle">?</text>
  </g>

  <g transform="translate(60,340)">
    <circle cx="18" cy="18" r="18" fill="#68d991"/>
    <path d="M10 18 L16 24 L27 11" stroke="white" stroke-width="4" fill="none" stroke-linecap="round" stroke-linejoin="round"/>
  </g>
</svg>
